<?xml version="1.0" encoding="utf-8"?>
<!DOCTYPE svg PUBLIC "-//W3C//DTD SVG 1.0//EN" "http://www.w3.org/TR/2001/REC-SVG-20010904/DTD/svg10.dtd">
<svg version="1.0" xmlns="http://www.w3.org/2000/svg" width="623px" height="405px" viewBox="0 0 623 405" preserveAspectRatio="xMidYMid meet">
 <g fill="#000000">
  <path d="M59.38 351.85 c-0.63 -0.24 -1.36 -0.73 -1.56 -1.07 -0.19 -0.34 -0.39 -63.95 -0.39 -141.34 0 -140.61 0 -140.81 0.97 -141.78 0.97 -0.97 1.46 -0.97 36.07 -0.88 34.07 0.15 35.09 0.19 35.77 1.07 1.07 1.46 0.97 18.88 -0.10 19.96 -0.63 0.68 -2.87 0.78 -16.79 0.78 l-16.01 0 0 16.45 c0 9 -0.10 62.64 -0.19 119.10 -0.10 56.51 -0.05 103.28 0.10 104.06 l0.24 1.31 15.92 0 c14.80 0 15.96 0.05 16.69 0.88 0.73 0.78 0.83 2.29 0.83 10.66 0 8.47 -0.10 9.83 -0.83 10.42 -0.63 0.58 -6.86 0.68 -35.14 0.78 -22.29 0.05 -34.80 -0.05 -35.58 -0.39z m32.95 -116.13 c-0.15 -0.49 -0.24 -0.10 -0.24 0.83 0 0.92 0.10 1.31 0.24 0.88 0.10 -0.49 0.10 -1.27 0 -1.70z"/>
  <path d="M340.70 351.75 l-1.22 -0.63 -0.15 -9.88 c-0.10 -8.71 0 -10.03 0.68 -10.81 0.78 -0.88 1.85 -0.92 16.60 -0.92 l15.72 0 -0.10 -120.32 -0.15 -120.37 -15.96 -0.24 c-13.48 -0.19 -16.01 -0.34 -16.40 -0.97 -0.29 -0.44 -0.44 -4.77 -0.34 -10.22 l0.10 -9.44 1.22 -0.63 c0.97 -0.49 8.47 -0.58 35.43 -0.49 l34.26 0.10 0.92 1.17 c0.92 1.12 0.92 4.04 0.92 141.68 l0 140.52 -1.02 0.92 c-0.97 0.88 -2.38 0.92 -35.19 1.02 -26.87 0.10 -34.36 0 -35.34 -0.49z"/>
  <path d="M487.40 317.10 c-12.12 -2.14 -22.63 -7.54 -31.10 -16.06 -10.90 -10.85 -17.18 -25.84 -19.23 -45.75 -0.24 -2.68 -0.63 -23.90 -0.78 -47.21 -0.34 -46.97 0.10 -66.34 1.70 -75.34 4.14 -22.97 14.80 -38.40 32.71 -47.21 11.63 -5.74 20.88 -7.79 35.73 -7.84 8.27 0 10.56 0.15 15.28 1.07 30.91 6.23 47.31 24.92 50.67 57.97 0.24 2.77 0.49 9.69 0.49 15.38 0 8.81 -0.10 10.51 -0.78 11.15 -0.63 0.68 -3.50 0.78 -22.73 0.88 -12.12 0.10 -23.02 0.15 -24.29 0.10 -4.19 0 -4.14 0.29 -4.43 -15.19 -0.29 -14.99 -0.83 -18.79 -3.31 -23.85 -2.48 -5.01 -7.06 -7.40 -12.80 -6.72 -7.40 0.92 -11.97 7.40 -13.43 18.88 -0.68 5.45 -0.68 112.58 0 118.18 0.68 5.50 1.70 9.35 3.36 12.90 1.80 3.85 3.31 5.60 6.47 7.30 2.24 1.27 3.07 1.46 6.23 1.46 6.28 -0.05 10.85 -3.12 13.92 -9.49 3.21 -6.62 4.09 -12.95 4.09 -30.03 l0 -12.31 -9.44 0 c-7.98 0 -9.59 -0.15 -10.22 -0.78 -0.68 -0.63 -0.78 -2.77 -0.78 -15.96 0 -11.15 0.15 -15.33 0.58 -15.77 0.88 -0.88 66.24 -0.83 67.02 0.05 0.34 0.49 0.54 17.72 0.54 59.96 0.05 53.59 0 59.38 -0.73 60.06 -0.68 0.68 -2.82 0.78 -16.84 0.78 -19.03 0 -17.67 0.49 -18.15 -6.18 -0.19 -2.24 -0.44 -4.87 -0.63 -5.94 l-0.24 -1.90 -3.41 3.75 c-5.69 6.23 -13.29 10.81 -21.56 13 -5.06 1.36 -18.01 1.70 -23.90 0.68z m80.94 -54.90 c-0.05 -6.18 -0.10 -1.12 -0.10 11.34 0 12.46 0.05 17.52 0.10 11.29 0.10 -6.18 0.10 -16.40 0 -22.63z m0 -35.53 c-0.05 -4.33 -0.15 -0.63 -0.15 8.18 0 8.86 0.10 12.36 0.15 7.88 0.10 -4.53 0.10 -11.73 0 -16.06z m0 -21.85 c-0.10 -0.88 -0.19 -0.29 -0.19 1.31 0 1.61 0.10 2.34 0.19 1.61 0.10 -0.73 0.10 -2.04 0 -2.92z m0 -54.03 c-0.10 -0.63 -0.19 -0.15 -0.19 1.07 0 1.22 0.10 1.70 0.19 1.12 0.10 -0.63 0.10 -1.61 0 -2.19z m-0.49 -13.14 c-0.10 -0.63 -0.19 -0.24 -0.19 0.83 -0.05 1.07 0.05 1.56 0.19 1.12 0.10 -0.49 0.10 -1.36 0 -1.95z"/>
  <path d="M153.85 313.45 c-0.88 -0.24 -1.85 -0.68 -2.09 -1.07 -0.44 -0.63 -0.34 -11.97 0.58 -66.34 0.29 -14.99 0.92 -51.69 1.46 -81.53 1.27 -73.84 1.46 -80.60 2.14 -81.53 0.78 -1.07 54.56 -1.17 55.68 -0.05 0.39 0.39 1.22 3.26 1.85 6.47 0.63 3.16 5.11 26.14 9.93 51.01 12.02 61.91 12.27 63.03 12.65 62.79 0.19 -0.15 0.49 -0.92 0.58 -1.80 0.15 -0.88 4.77 -24.38 10.27 -52.22 5.50 -27.84 10.66 -53.98 11.49 -58.11 0.78 -4.14 1.75 -7.79 2.14 -8.18 1.07 -1.07 53.69 -0.92 54.85 0.10 0.73 0.63 0.88 2.87 1.17 17.42 0.83 41.66 1.31 69.41 2 109.37 0.39 23.70 0.97 56.26 1.27 72.33 0.39 21.71 0.39 29.54 0 30.32 -0.58 1.02 -0.78 1.02 -19.23 1.02 -17.13 0 -18.69 -0.05 -19.37 -0.83 -0.63 -0.73 -0.83 -3.31 -1.07 -14.99 -1.07 -47.46 -3.12 -112.48 -3.46 -112.09 -0.39 0.34 -19.08 100.99 -22.34 120.02 -0.68 3.85 -1.41 6.81 -1.85 7.25 -0.63 0.63 -3.12 0.73 -16.60 0.78 -17.04 0.05 -17.08 0.05 -17.57 -2.48 -0.15 -0.73 -2.38 -12.70 -4.92 -26.62 -11.39 -61.42 -18.30 -97.73 -18.84 -98.27 -0.19 -0.29 -0.39 1.31 -0.39 3.65 0 2.24 -0.44 18.64 -0.97 36.46 -0.54 17.81 -1.31 44.29 -1.70 58.84 -0.44 14.94 -0.97 26.87 -1.27 27.35 -0.44 0.83 -1.22 0.92 -8.37 0.97 -4.33 0 -12.02 0.10 -17.13 0.15 -5.06 0.10 -9.98 0 -10.90 -0.19z m32.42 -8.13 c-0.10 -0.78 -0.19 -0.15 -0.19 1.31 0 1.46 0.10 2.09 0.19 1.36 0.10 -0.78 0.10 -1.95 0 -2.68z m0.49 -19.27 c-0.10 -1.12 -0.15 -0.05 -0.15 2.34 0 2.43 0.05 3.31 0.15 2.04 0.10 -1.27 0.10 -3.26 0 -4.38z m0.49 -17.47 c-0.10 -0.63 -0.19 -0.15 -0.19 1.07 0 1.22 0.10 1.70 0.19 1.12 0.10 -0.63 0.10 -1.61 0 -2.19z m125.57 -124.11 c-0.10 -0.63 -0.19 -0.24 -0.19 0.83 -0.05 1.07 0.05 1.56 0.19 1.12 0.10 -0.49 0.10 -1.36 0 -1.95z m-0.97 -49.65 c-0.10 -1.17 -0.19 -0.34 -0.19 1.80 0 2.14 0.10 3.07 0.19 2.09 0.10 -1.02 0.10 -2.77 0 -3.89z"/>
 </g>
</svg>